# xmcd CD database file
#
# Track frame offsets:
#	150
#	53847
#	72055
#
# Disc length: 1810 seconds
#
# Revision: 0
# Processed by: cddbd v1.5.2PL0 Copyright (c) Steve Scherf et al.
# Submitted via: CDex 1.70beta3
#
DISCID=20071003
DTITLE=Red Prysock and Sil Austin - Battle Royal!
DYEAR=1959
DGENRE=Jazz
TTITLE0=No.1 Sil!
TTITLE1=Kenny's Blues
TTITLE2=Take The A Train
EXTD=YEAR: 1959
EXTT0=
EXTT1=
EXTT2=
PLAYORDER=
